<?xml version="1.0" standalone="no"?>
<!DOCTYPE svg PUBLIC "-//W3C//DTD SVG 20010904//EN"
 "http://www.w3.org/TR/2001/REC-SVG-20010904/DTD/svg10.dtd">
<svg version="1.0" xmlns="http://www.w3.org/2000/svg"
 width="500.000000pt" height="500.000000pt" viewBox="0 0 500.000000 500.000000"
 preserveAspectRatio="xMidYMid meet">
<metadata>
Created by potrace 1.14, written by Peter Selinger 2001-2017
</metadata>
<g transform="translate(0.000000,500.000000) scale(0.100000,-0.100000)"
fill="#000000" stroke="none">
<path d="M2465 4971 c-11 -10 -85 -68 -165 -128 -80 -60 -197 -149 -260 -198
-63 -48 -196 -149 -295 -223 -201 -151 -445 -341 -445 -348 0 -2 19 -13 42
-25 66 -34 163 -137 198 -211 16 -34 30 -71 30 -80 0 -9 4 -19 9 -22 5 -4 97
61 204 143 l195 150 1 103 c1 56 3 103 4 104 1 0 116 87 254 192 139 106 255
192 258 192 6 0 463 -347 483 -367 7 -7 18 -13 23 -13 5 0 9 -48 9 -108 0 -92
3 -109 18 -118 10 -6 98 -73 197 -148 l179 -137 22 59 c42 113 114 201 212
262 l52 32 -72 57 c-107 84 -382 291 -548 413 -122 89 -494 374 -553 423 -22
19 -28 19 -52 -4z"/>
<path d="M2455 4215 c-51 -41 -251 -194 -445 -340 -102 -76 -187 -142 -190
-145 -3 -3 -50 -39 -105 -80 -55 -41 -107 -81 -115 -87 -148 -122 -598 -453
-621 -458 -17 -4 -50 -4 -73 -1 l-41 7 0 -228 c0 -126 3 -230 7 -233 6 -4 107
65 163 112 55 46 553 428 558 428 1 0 2 -401 2 -891 l-1 -891 179 -137 c99
-75 222 -169 274 -209 52 -40 97 -71 100 -68 10 10 8 349 -2 361 -5 6 -45 38
-88 70 l-77 58 0 1001 0 1002 154 117 c85 64 157 114 159 109 6 -9 5 -3072 0
-3072 -5 0 -74 52 -258 195 -118 91 -189 146 -522 399 l-101 77 0 720 c0 396
-2 722 -4 725 -5 5 -423 -313 -522 -398 -5 -4 1 -16 15 -27 48 -38 65 -57 87
-93 47 -82 49 -102 48 -622 -1 -422 1 -492 14 -507 8 -9 105 -85 215 -170 110
-84 202 -156 205 -159 6 -8 452 -348 575 -439 49 -36 171 -127 270 -202 l181
-136 95 74 c51 40 171 129 264 198 190 139 513 384 865 657 l235 182 0 494 c0
436 2 501 16 549 21 65 57 119 104 153 19 14 35 28 35 32 0 4 -52 47 -116 95
-64 48 -126 96 -138 106 -22 19 -233 182 -266 205 -17 13 -18 -12 -17 -713 0
-399 -2 -727 -4 -729 -7 -5 -336 -258 -464 -355 -289 -221 -409 -310 -414
-306 -9 5 -7 3070 2 3070 4 0 77 -53 162 -118 l154 -118 -1 -1002 0 -1002 -84
-60 c-65 -46 -84 -66 -85 -85 -3 -78 -1 -331 3 -336 3 -3 129 89 279 204 l274
209 0 890 c0 565 4 889 10 885 5 -3 142 -109 305 -234 350 -272 337 -261 380
-293 l35 -26 3 237 c1 130 1 238 -1 240 -2 2 -18 0 -35 -5 -20 -6 -46 -6 -69
1 -38 10 -223 144 -618 448 -104 80 -311 238 -460 350 -148 112 -272 206 -275
209 -14 16 -170 131 -177 131 -4 0 -21 -11 -38 -25z"/>
</g>
</svg>
